<svg xmlns="http://www.w3.org/2000/svg" viewBox="0 0 373.33 373.33"><defs><style>.cls-1{fill:#fef5e2;}.cls-2{fill:#f8ab29;}</style></defs><g id="Layer_2" data-name="Layer 2"><g id="Layer_1-2" data-name="Layer 1"><circle class="cls-1" cx="186.67" cy="186.67" r="186.67"/><path class="cls-2" d="M186.66,53.24A133.43,133.43,0,1,1,53.24,186.53,133.26,133.26,0,0,1,186.66,53.24ZM122.87,186.72c0,5.86,0,11.71,0,17.57,0,5.12,2.32,7.4,7.49,7.41,9.33,0,18.66.13,28-.07,2.86-.07,3.38.89,3.34,3.48-.15,9.33-.07,18.66-.05,28,0,5,2.31,7.35,7.22,7.36q17.71,0,35.44,0c5.11,0,7.39-2.32,7.4-7.49,0-9.23.17-18.47-.09-27.69-.09-3.18.95-3.7,3.8-3.64,9.23.17,18.46.08,27.7.06,5,0,7.34-2.35,7.35-7.24q0-17.72,0-35.44c0-5.11-2.31-7.38-7.49-7.38-9.33,0-18.66-.14-28,.07-2.87.06-3.37-.91-3.33-3.49.14-9.33.07-18.66,0-28,0-5-2.32-7.35-7.23-7.36q-17.72,0-35.43,0c-5.13,0-7.39,2.31-7.4,7.49,0,9.33-.13,18.66.07,28,.06,2.85-.88,3.38-3.48,3.34-9.23-.15-18.46-.07-27.7-.06-5.4,0-7.64,2.21-7.66,7.52C122.85,175,122.87,180.86,122.87,186.72Z"/></g></g></svg>