<svg xmlns="http://www.w3.org/2000/svg" viewBox="0 0 373.33 373.33"><defs><style>.cls-1{fill:#026c76;}.cls-2{fill:#f7c905;}</style></defs><g id="Layer_2" data-name="Layer 2"><g id="Layer_1-2" data-name="Layer 1"><circle class="cls-1" cx="186.67" cy="186.67" r="186.67"/><path class="cls-2" d="M186.6,257.13c-8.72,0-17.45,0-26.17,0-6.31,0-10.81-3.32-12.29-8.9a9.74,9.74,0,0,1-.34-2.89c.48-10.86-3.38-20.26-9.49-29-4.22-6-8.63-11.93-12.51-18.2a73.5,73.5,0,0,1-11.19-44.69c1.78-25.44,14.72-43.55,37.93-53.62,25.08-10.9,50.28-10.09,74.4,3,18.89,10.3,29.47,26.63,31.55,48.23,1.84,19.07-3.26,36.24-14.07,51.89-4,5.81-8.28,11.44-12,17.44-4.53,7.24-7.16,15.07-6.78,23.65.32,7.28-5,13.24-13.06,13.08C203.9,257,195.25,257.13,186.6,257.13ZM192.43,221c0,7.45.09,14.9-.06,22.34,0,2.09.63,2.47,2.53,2.43,5.72-.12,11.44-.13,17.15,0,1.86,0,2.25-.59,2.2-2.3a50.32,50.32,0,0,1,6.86-26.24A177.08,177.08,0,0,1,232.8,199.8c8.78-12.06,14.5-25.18,14.67-40.36.21-19.92-7.42-35.8-24.87-45.91-19.7-11.4-40.6-12.34-61.87-4.81-12.35,4.37-22.5,11.92-28.64,23.75-9,17.43-8,35.17-.27,52.75,3.55,8.11,9,15.05,14.16,22.19,7.91,11,13.69,22.79,13.12,36.81-.06,1.52.81,1.46,1.85,1.46,5.79,0,11.58-.09,17.37,0,2,0,2.66-.41,2.64-2.55-.1-14.74-.08-29.48,0-44.22,0-1.8-.41-2.72-2.23-3.46A20.38,20.38,0,0,1,167,170.62a20.75,20.75,0,0,1,23.45-14.23c9.26,1.77,15.73,9.11,16.75,19,.85,8.24-4.47,16.85-12.66,20.16a2.94,2.94,0,0,0-2.14,3.3C192.49,206.21,192.43,213.58,192.43,221Zm3.34-44.27a9.11,9.11,0,1,0-9.15,9.07A9,9,0,0,0,195.77,176.68Z"/><path class="cls-2" d="M186.68,265.61q12.18,0,24.37,0a13.09,13.09,0,0,1,3.12.34,5.44,5.44,0,0,1,4.08,5.3,5.5,5.5,0,0,1-3.89,5.46,10.39,10.39,0,0,1-2.89.39q-24.81,0-49.63,0c-4.13,0-6.7-2.21-6.75-5.66a5.44,5.44,0,0,1,4.32-5.55,12.8,12.8,0,0,1,2.9-.29Q174.49,265.59,186.68,265.61Z"/><path class="cls-2" d="M186.89,285.64c4.2,0,8.41,0,12.62,0s6.62,2.29,6.55,5.77-2.63,5.58-6.55,5.62H197c-1.35,0-2.85-.33-4,.14s-.49,2.27-.89,3.43a5.88,5.88,0,0,1-5.8,4.1,5.43,5.43,0,0,1-5.26-5.21c-.1-2.3-1-2.69-3-2.49a37.51,37.51,0,0,1-4.5,0c-3.82-.07-6.37-2.43-6.32-5.84s2.51-5.5,6.32-5.55C178,285.6,182.46,285.64,186.89,285.64Z"/><path class="cls-2" d="M283.28,114.14a5.14,5.14,0,0,1-2.64,4.68c-3.6,2.17-7.22,4.31-10.92,6.3A5.64,5.64,0,0,1,264,115.4c3.62-2.26,7.32-4.44,11.11-6.41A5.55,5.55,0,0,1,283.28,114.14Z"/><path class="cls-2" d="M90.05,114a5.48,5.48,0,0,1,7.91-5c4,2,7.77,4.25,11.51,6.61a5.62,5.62,0,0,1-5.81,9.61c-3.7-2-7.32-4.13-10.93-6.29A5.17,5.17,0,0,1,90.05,114Z"/><path class="cls-2" d="M283.29,209.57a5.49,5.49,0,0,1-7.91,5.07,128,128,0,0,1-11.68-6.77,5.59,5.59,0,0,1,5.57-9.63c4,2.07,7.86,4.38,11.71,6.71A4.93,4.93,0,0,1,283.29,209.57Z"/><path class="cls-2" d="M111.92,203.27a5.28,5.28,0,0,1-2.48,4.78c-3.73,2.24-7.47,4.48-11.31,6.52a5.63,5.63,0,0,1-5.56-9.77c3.63-2.25,7.32-4.44,11.1-6.43A5.61,5.61,0,0,1,111.92,203.27Z"/><path class="cls-2" d="M89,167.49c-2,0-3.91,0-5.87,0a5.87,5.87,0,0,1-6-5.55,5.63,5.63,0,0,1,5.65-5.79q6.2-.25,12.4,0a5.65,5.65,0,0,1,5.64,5.8,5.86,5.86,0,0,1-6,5.54C92.9,167.54,90.94,167.49,89,167.49Z"/><path class="cls-2" d="M284.15,167.49c-2,0-3.91.07-5.87,0a5.82,5.82,0,0,1-5.78-5.5,5.56,5.56,0,0,1,5.39-5.79c4.35-.18,8.72-.17,13.06,0a5.49,5.49,0,0,1,5.24,5.69,5.8,5.8,0,0,1-5.5,5.55c-2.18.13-4.36,0-6.54,0Z"/></g></g></svg>