<svg xmlns="http://www.w3.org/2000/svg" viewBox="0 0 373.33 373.33"><defs><style>.cls-1{fill:#ebf5fd;}.cls-2{fill:#5a9dd6;}</style></defs><g id="Layer_2" data-name="Layer 2"><g id="Layer_1-2" data-name="Layer 1"><circle class="cls-1" cx="186.67" cy="186.67" r="186.67"/><path class="cls-2" d="M190.78,292.41H84.8c-3.53,0-3.85-.31-3.85-3.76,0-2.52,0-5,0-7.57,0-3,.39-3.41,3.52-3.42,1.34,0,2.68-.06,4,0,1.14.06,1.66-.37,1.56-1.53,0-.44,0-.89,0-1.33v-132c0-2.9,0-2.93-2.87-2.89-7,.09-6.23-.21-6.23-6.14,0-7.16-.63-6.59,6.6-6.59,11.6,0,23.2.06,34.8,0,2.06,0,2.58.54,2.57,2.56q-.08,72.38,0,144.74c0,3.83-.31,3.22,3.14,3.24,5.62,0,5.62,0,5.62-5.65V111.9c0-2.91,0-2.91,2.82-2.91q54.33,0,108.65,0c2.12,0,2.73.48,2.72,2.67q-.09,81.6,0,163.21c0,3.21-.37,2.86,2.86,2.81,1.89,0,4.31.86,5.54-.44s.34-3.55.34-5.39q0-60.12,0-120.24c0-2.95,0-2.95,3-2.95h29c2.8,0,2.8,0,2.8,2.94V274.24c0,.67,0,1.34,0,2-.06,1.05.39,1.46,1.45,1.42,1.55-.06,3.12,0,4.68,0,2-.08,3,.73,3,2.87-.07,3-.05,6.08,0,9.13,0,2-.91,2.8-2.86,2.78-4-.05-8,0-12,0Zm-.06-169.77c-2.6,0-5.2,0-7.81,0-2.82,0-3.32.53-3.33,3.42,0,3.79-.07,7.58,0,11.36,0,1.48-.44,1.88-1.88,1.84-3.94-.09-7.88,0-11.82,0-2,0-3,.82-3,2.93.06,5.42,0,10.84,0,16.26,0,2.4.62,3,3,3,3.87,0,7.74.08,11.61,0,1.52,0,2.06.34,2,1.94-.12,3.78-.05,7.57,0,11.36,0,2.74.57,3.34,3.21,3.35q7.92,0,15.84,0c2.65,0,3.22-.61,3.23-3.34,0-3.86.06-7.72,0-11.58,0-1.39.41-1.76,1.77-1.73,3.94.08,7.88.05,11.82,0,2.42,0,3.05-.63,3.06-3q0-8,0-16c0-2.55-.61-3.14-3.17-3.15-3.86,0-7.73-.06-11.6,0-1.42,0-1.93-.33-1.89-1.83.1-3.71,0-7.42,0-11.13,0-3.19-.45-3.65-3.55-3.66C195.78,122.63,193.25,122.64,190.72,122.64Zm6.84,124.27c0,9.57,0,19.15,0,28.72,0,1.48.31,2.08,2,2.06q10.59-.12,21.19,0c1.38,0,1.76-.4,1.76-1.76-.05-18.92,0-37.85,0-56.77,0-2.4-.61-3-3.07-3-6.46,0-12.93.09-19.4-.06-2.07-.05-2.43.67-2.41,2.53C197.61,228.07,197.56,237.49,197.56,246.91Zm-9,.08c0-9.65,0-19.3,0-29,0-1.39-.31-1.93-1.83-1.91q-10,.12-20.08,0c-2.16,0-2.84,1-2.83,3q0,28.28,0,56.55c0,1.56.46,2,2,2,6.84-.08,13.68-.09,20.52,0,1.75,0,2.25-.44,2.23-2.21C188.48,266,188.52,256.49,188.52,247Z"/><path class="cls-2" d="M190.82,87.55H251c3.21,0,3.76.53,3.78,3.7,0,2,0,4,0,6s-.94,3-3,3H131.2c-4.19,0-4.56-.37-4.56-4.58,0-1.63,0-3.26,0-4.89,0-2.63.69-3.27,3.31-3.27Z"/><path class="cls-2" d="M277.84,139.87c-6.4,0-12.79-.06-19.18,0-1.68,0-2.2-.49-2.13-2.14.12-3,.07-5.94,0-8.91,0-1.15.22-1.72,1.58-1.72q19.86.08,39.7,0c1.88,0,2.72.86,2.68,2.72,0,2.22,0,4.45,0,6.68,0,2.68-.56,3.29-3.25,3.31C290.77,139.89,284.31,139.87,277.84,139.87Z"/></g></g></svg>