<svg xmlns="http://www.w3.org/2000/svg" viewBox="0 0 373.33 373.33"><defs><style>.cls-1{fill:#ebf6fa;}.cls-2{fill:#026c76;}</style></defs><g id="Layer_2" data-name="Layer 2"><g id="Layer_1-2" data-name="Layer 1"><circle class="cls-1" cx="186.67" cy="186.67" r="186.67"/><path class="cls-2" d="M191.64,295.54H83.8a23.41,23.41,0,0,1-4-.25A9.13,9.13,0,0,1,72,285.57a9.3,9.3,0,0,1,9-8.66c4.13-.14,8.28-.19,12.4,0,2.53.13,3.32-.5,3.31-3.19-.12-24.35-.07-48.7-.07-73.06q0-16.71,0-33.43c0-7.21,3.5-10.73,10.73-10.75,9.44,0,18.87-.1,28.31.06,2.54,0,3.32-.54,3.3-3.21-.11-23.37-.06-46.73-.06-70.1,0-8.1,3.59-11.73,11.62-11.74h82.22c8,0,11.63,3.63,11.63,11.73,0,23.45,0,46.91-.06,70.36,0,2.42.65,3,3,3,9.52-.14,19-.08,28.58-.05,7.18,0,10.67,3.57,10.67,10.81q0,53.24,0,106.49c0,2.39.5,3.28,3.06,3.14,3.94-.23,7.9-.09,11.86-.06,5.54.06,9.7,3.86,9.86,9,.17,5.31-3.74,9.34-9.42,9.68-.9.05-1.8,0-2.7,0ZM205.79,127h3c5.93,0,9.89-3.58,9.95-8.94s-3.9-9.25-9.9-9.36c-2.51,0-5-.08-7.54,0-1.55.06-2-.51-2-2,.09-2.6.05-5.21,0-7.81-.08-5.47-3.74-9.41-8.85-9.58s-9.1,3.85-9.29,9.45c-.08,2.6-.09,5.21,0,7.81.06,1.62-.44,2.17-2.13,2.17-3.39,0-6.82-.43-10.19.32a9.07,9.07,0,0,0,1.72,17.92c2.78.06,5.57.14,8.35,0,1.87-.11,2.29.65,2.25,2.32-.08,2.87-.12,5.75.06,8.61a9,9,0,0,0,18.07-.48c0-1.35,0-2.7,0-4C199.3,127,199.3,127,205.79,127Zm-60,83.62c2.24,0,4.48,0,6.72,0,3-.05,4.53-1.46,4.59-4.4q.14-7,0-14c-.06-2.83-1.62-4.33-4.37-4.36q-7.12-.09-14.25,0c-2.6,0-4.13,1.33-4.2,3.89-.14,5-.15,10,0,15,.08,2.57,1.57,3.74,4.25,3.8C140.94,210.61,143.36,210.57,145.78,210.57ZM249,245.22c0-2.33.07-4.67,0-7-.11-3-1.55-4.44-4.53-4.5q-6.85-.12-13.72,0c-3,.06-4.56,1.66-4.6,4.75q-.07,6.72,0,13.44c0,3,1.44,4.63,4.33,4.7q7.13.18,14.25,0c2.9-.07,4.16-1.46,4.27-4.42C249.09,249.88,249,247.55,249,245.22Zm-103.49,10.9v0H152c3.07-.18,4.49-1.49,4.54-4.49.07-4.31.08-8.63,0-12.94q-.09-4.3-4.36-4.39-6.6-.12-13.21,0c-2.76.05-4.13,1.42-4.19,4.2-.1,4.49-.06,9,0,13.48,0,2.59,1.48,4,4,4.1C141,256.2,143.28,256.12,145.53,256.12Zm57-10.73c0-2.24,0-4.49,0-6.73,0-3-1.39-4.41-4.45-4.44-4.31,0-8.62-.05-12.93,0-3,0-4.37,1.4-4.4,4.49q-.06,6.6,0,13.2c0,2.78,1.34,4.25,4,4.31q6.87.15,13.73,0c2.6-.07,3.92-1.52,4-4.09C202.57,249.88,202.52,247.64,202.52,245.39Zm-10.77-57.08c-2.42,0-4.84,0-7.26,0s-3.7,1.33-3.73,3.69c-.06,4.84-.07,9.69,0,14.53a3.3,3.3,0,0,0,3.59,3.52q7.26.09,14.53,0a3.31,3.31,0,0,0,3.59-3.53c.08-4.84.07-9.69,0-14.53,0-2.35-1.39-3.62-3.74-3.68S194.08,188.31,191.75,188.31Zm45.83,0c-2.16,0-4.32,0-6.47,0-2.86,0-4.35,1.44-4.4,4.28q-.12,6.6,0,13.21c.06,2.71,1.53,4.13,4.22,4.16,4.49.06,9,0,13.48,0,2.47,0,4-1.23,4-3.72q.14-7.14,0-14.29c-.05-2.35-1.48-3.58-3.81-3.64S239.91,188.36,237.58,188.35Z"/></g></g></svg>