<svg xmlns="http://www.w3.org/2000/svg" viewBox="0 0 373.33 373.33"><defs><style>.cls-1{fill:#eaf5f5;}.cls-2{fill:#26b5b3;}</style></defs><g id="Layer_2" data-name="Layer 2"><g id="Layer_1-2" data-name="Layer 1"><circle class="cls-1" cx="186.67" cy="186.67" r="186.67"/><path class="cls-2" d="M254.73,293.53H210.64q0-24.27,0-48.56c0-4.55-2.6-7.1-7.18-7.11H169.88c-4.6,0-7.19,2.55-7.19,7.11q0,24.29,0,48.56H118.6q0-92.44-.06-184.9c0-5.23,3.08-8.21,8.15-8,5.63.19,11.27,0,16.91.08,1.86,0,2.59-.35,2.52-2.42-.17-5.06.1-10.13-.11-15.19-.16-4,1.06-6.92,4.7-8.7h72.77c3.59,1.7,4.88,4.54,4.73,8.45-.2,5.35,0,10.7-.08,16,0,1.42.43,1.82,1.81,1.8,5.5-.07,11,.13,16.48-.07,5.24-.2,8.39,2.62,8.38,8.24Q254.64,201.19,254.73,293.53ZM186.65,138.64a6.33,6.33,0,0,0,6.42-6.34c.09-1.7.08-3.42,0-5.12,0-1.14.36-1.51,1.47-1.45,1.49.08,3,0,4.49,0,4,0,6.76-2.45,6.92-6s-2.51-6.47-6.5-6.71c-1.71-.11-3.42-.07-5.13,0-.91,0-1.27-.31-1.24-1.24,0-1.71.06-3.42,0-5.13a6.41,6.41,0,1,0-12.82,0,37.2,37.2,0,0,0,0,4.48c.12,1.47-.31,2-1.86,2a23.34,23.34,0,0,0-6,.2,6.32,6.32,0,0,0,1,12.51,42.33,42.33,0,0,0,4.91,0c1.44-.1,2.07.28,1.94,1.85a35.1,35.1,0,0,0,0,4.7A6.34,6.34,0,0,0,186.65,138.64Zm-33,25.57c1.66,0,2.88.08,4.08,0a6.56,6.56,0,0,0,6.24-6.38,6.44,6.44,0,0,0-6-6.37,68,68,0,0,0-7.69,0A6.34,6.34,0,0,0,149.23,164,20.18,20.18,0,0,0,153.66,164.21Zm32.36,0c1.85,0,3.14.1,4.41,0a6.38,6.38,0,0,0-.48-12.76c-2.28,0-4.56-.08-6.83,0A6.35,6.35,0,0,0,181.91,164,19.17,19.17,0,0,0,186,164.2Zm33.27-12.79c-1.07,0-2.13,0-3.2,0a6.55,6.55,0,0,0-6.73,6.09,6.48,6.48,0,0,0,6.12,6.67,53.35,53.35,0,0,0,7.48,0,6.46,6.46,0,0,0,6.09-6.49,6.53,6.53,0,0,0-6.55-6.27C221.43,151.38,220.36,151.41,219.29,151.41Zm-65,25.68c-1.14,0-2.28,0-3.42,0a6.55,6.55,0,0,0-6.57,6,6.33,6.33,0,0,0,5.65,6.65,39.78,39.78,0,0,0,8.52,0A6.3,6.3,0,0,0,164,183a6.55,6.55,0,0,0-6.48-5.89C156.42,177.06,155.35,177.09,154.28,177.09Zm32.46,0c-1.07,0-2.14,0-3.21,0a6.39,6.39,0,1,0-.56,12.76,53.21,53.21,0,0,0,7.47,0,6.38,6.38,0,0,0-.5-12.75C188.87,177.07,187.81,177.09,186.74,177.09Zm32.45,0c-1.07,0-2.14,0-3.21,0a6.39,6.39,0,1,0-.39,12.77,56.73,56.73,0,0,0,7.26,0,6.38,6.38,0,1,0-.46-12.76C221.32,177.07,220.25,177.09,219.19,177.09Zm-65.52,38.49c1.67,0,2.89.08,4.09,0a6.54,6.54,0,0,0,6.22-6.38,6.45,6.45,0,0,0-6-6.36,67.85,67.85,0,0,0-7.68,0,6.34,6.34,0,0,0-1.06,12.52A20.21,20.21,0,0,0,153.67,215.58Zm33-12.8c-1.07,0-2.14,0-3.21,0a6.55,6.55,0,0,0-6.67,6.15,6.45,6.45,0,0,0,6,6.59,49.36,49.36,0,0,0,7.69,0,6.45,6.45,0,0,0,6-6.55,6.52,6.52,0,0,0-6.61-6.2C188.83,202.75,187.76,202.78,186.7,202.78Zm32.63,0c-1.14,0-2.28,0-3.42,0a6.54,6.54,0,0,0-6.55,6.26,6.46,6.46,0,0,0,6.08,6.5,53.35,53.35,0,0,0,7.48,0,6.39,6.39,0,1,0-.6-12.76C221.33,202.76,220.33,202.78,219.33,202.78Z"/><path class="cls-2" d="M77.08,158.69c1.78-3.64,4.74-4.84,8.7-4.7,5.77.21,11.55.15,17.32,0,2.07-.05,2.75.36,2.74,2.63-.1,20.6-.06,41.21-.06,61.82q0,37.55,0,75.08c-8.9,0-17.81,0-26.72,0-1.53,0-2-.23-2-1.92Q77.12,225.17,77.08,158.69Z"/><path class="cls-2" d="M267.58,293.53q0-68.77-.06-137.55c0-1.68.55-2,2.08-2,6,.08,12,.19,18,0,4-.14,6.92,1.06,8.7,4.7q0,66.57,0,133.13c0,1.47-.29,1.77-1.75,1.76C285.56,293.49,276.57,293.53,267.58,293.53Z"/><path class="cls-2" d="M175.54,293.53q0-20.62-.06-41.25c0-1.29.36-1.71,1.68-1.69q9.51.09,19,0c1.32,0,1.68.4,1.68,1.69q-.08,20.62-.06,41.25Z"/></g></g></svg>