<svg width="35" height="35" viewBox="0 0 35 35" fill="none" xmlns="http://www.w3.org/2000/svg">
<path d="M17.1582 35C16.5895 34.8995 16.0146 34.8277 15.454 34.6937C12.9377 34.0929 10.8548 32.7865 9.18545 30.8109C8.06545 29.4923 7.01581 28.1154 6.04092 26.6861C5.9042 26.4872 5.77158 26.2835 5.83994 26.0244C5.9124 25.751 6.06963 25.5562 6.35811 25.4946C6.68623 25.4263 6.93164 25.5486 7.12168 25.8159C7.6166 26.5111 8.09648 27.2187 8.61807 27.8934C9.55049 29.0999 10.4501 30.3413 11.6484 31.3113C13.758 33.0148 16.1697 33.7791 18.8809 33.587C20.0729 33.5004 21.2399 33.2015 22.3269 32.7045C22.5066 32.6231 22.5572 32.5712 22.4417 32.373C20.9943 29.886 19.5551 27.3946 18.1241 24.8985C18.0216 24.7194 17.9396 24.6709 17.7304 24.7454C15.3938 25.576 12.989 24.6955 11.7353 22.5504C10.8694 21.0684 10.011 19.5818 9.16016 18.0906C7.90303 15.8963 8.34395 13.3841 10.2744 11.7544C10.4269 11.6259 10.4111 11.5397 10.3264 11.3907C8.87897 8.89242 7.4359 6.39115 5.99717 3.88691C5.88164 3.68594 5.80098 3.70645 5.64307 3.81855C3.34004 5.50977 1.96465 7.76357 1.49297 10.5861C1.12041 12.816 1.65498 14.8928 2.48145 16.9319C2.95518 18.1009 3.44258 19.263 3.99697 20.3964C4.10703 20.622 4.15693 20.8482 4.05781 21.0848C4.01059 21.2093 3.92624 21.3162 3.81619 21.3912C3.70615 21.4661 3.57572 21.5055 3.44258 21.5038C3.14863 21.5093 2.92783 21.3582 2.79248 21.0854C2.33311 20.1592 1.90381 19.2179 1.52305 18.2581C0.986426 16.9087 0.429297 15.5647 0.163379 14.1244C0.10459 13.7922 0.118262 13.4477 0 13.125V11.0742C0.0827148 10.6196 0.149707 10.1609 0.250195 9.71045C0.933789 6.65114 2.57236 4.24079 5.16592 2.47939C5.28281 2.39941 5.37988 2.32764 5.39424 2.16699C5.44961 1.53604 5.79414 1.09717 6.33281 0.792285C6.81133 0.518848 7.28301 0.220801 7.79297 0H8.54492C9.1998 0.194824 9.58535 0.665137 9.91211 1.24072C11.4844 3.99629 13.0785 6.73887 14.6638 9.48623C15.1614 10.3489 15.0972 11.2191 14.4354 11.7838C13.9102 12.221 13.3139 12.5651 12.6725 12.801C12.3143 12.9315 11.9194 12.9178 11.5712 12.7627C11.3812 12.6834 11.2581 12.7224 11.1118 12.8427C9.87588 13.8626 9.4377 15.6611 10.1972 17.0741C11.1177 18.7858 12.0896 20.4693 13.1127 22.1245C13.9549 23.4917 15.7315 24.0215 17.2307 23.4623C17.4043 23.3939 17.5082 23.3256 17.5376 23.1205C17.6224 22.5278 17.9601 22.1047 18.481 21.8183C18.8098 21.6371 19.129 21.4389 19.4592 21.2605C20.3321 20.7874 21.3261 21.0437 21.8258 21.9044C23.5229 24.8233 25.2116 27.7475 26.8919 30.677C27.3971 31.5581 27.1182 32.5452 26.2507 33.0695C25.9007 33.2824 25.5461 33.4874 25.187 33.6848C24.9554 33.8203 24.6948 33.8987 24.4269 33.9135C24.1589 33.9282 23.8913 33.8789 23.6462 33.7695C23.5924 33.7407 23.5322 33.7257 23.4712 33.7257C23.4101 33.7257 23.35 33.7407 23.2962 33.7695C22.0292 34.4191 20.6494 34.8196 19.2315 34.9494C19.1764 34.961 19.1229 34.9794 19.0723 35.0041L17.1582 35ZM20.2973 22.4219C20.2002 22.4116 20.1161 22.4779 20.0286 22.5278C19.7907 22.6611 19.5562 22.8013 19.3197 22.938C18.8228 23.2237 18.7988 23.3126 19.0921 23.8205C19.9379 25.2861 20.7847 26.752 21.6323 28.2181C22.3938 29.536 23.1556 30.8542 23.9176 32.1727C24.1691 32.6081 24.2553 32.6293 24.6989 32.3777C24.9361 32.241 25.172 32.1043 25.4078 31.9676C25.818 31.7276 25.8453 31.6258 25.604 31.2061C25.0713 30.2805 24.5376 29.3556 24.003 28.4313L20.73 22.765C20.6343 22.5921 20.555 22.4034 20.2973 22.4219ZM12.2015 11.4885C12.2999 11.4967 12.3765 11.442 12.4551 11.3976C12.6923 11.2608 12.9274 11.1241 13.164 10.9874C13.6931 10.6846 13.7149 10.6073 13.4169 10.0905C12.5765 8.63219 11.7359 7.17591 10.8951 5.72168C10.129 4.39551 9.36296 3.06774 8.59688 1.73838C8.3501 1.30977 8.24824 1.28379 7.81279 1.5333C7.57627 1.67002 7.33975 1.80674 7.10459 1.94346C6.69922 2.18135 6.66982 2.29619 6.9043 2.70635C7.60749 3.92633 8.31182 5.14655 9.01729 6.36699C9.9374 7.96204 10.8575 9.5571 11.7776 11.1521C11.8761 11.3162 11.9629 11.5028 12.2015 11.4885Z" fill="black"/>
<path d="M35 9.98047C34.8633 10.4945 34.8305 11.0298 34.6685 11.5404C33.5064 15.212 31.0249 17.4234 27.244 18.0838C25.1248 18.4543 23.1028 18.0154 21.2482 16.9019C21.1607 16.8427 21.0608 16.8042 20.9562 16.7894C20.8516 16.7746 20.7451 16.7839 20.6446 16.8164C19.9459 17.0153 19.2439 17.2006 18.5418 17.3852C17.8699 17.5615 17.4481 17.1322 17.6258 16.4541C17.8145 15.7295 17.9997 15.0035 18.2028 14.283C18.2278 14.2095 18.2356 14.1312 18.2256 14.0542C18.2157 13.9772 18.1882 13.9034 18.1453 13.8387C15.022 8.575 17.6238 2.00498 23.4917 0.317871C23.9942 0.175 24.5164 0.131934 25.0196 0H26.7969C27.002 0.120312 27.2385 0.0813477 27.4593 0.127148C31.1282 0.883203 33.5139 3.05635 34.6582 6.61172C34.8257 7.13193 34.8592 7.67812 35 8.20312V9.98047ZM25.8433 16.8164C26.3727 16.8185 26.9009 16.7663 27.4197 16.6605C31.5328 15.8129 34.179 11.954 33.5071 7.79639C32.7626 3.1917 27.9987 0.303516 23.5369 1.75342C18.6786 3.33184 16.6599 9.08154 19.4749 13.3444C19.68 13.6562 19.7429 13.9508 19.6308 14.3069C19.5119 14.685 19.4401 15.078 19.3225 15.4567C19.2466 15.7001 19.274 15.7732 19.5399 15.6926C19.92 15.5771 20.3117 15.4991 20.689 15.3781C21.0663 15.2571 21.3617 15.3255 21.6823 15.5408C22.9531 16.3946 24.3702 16.787 25.8433 16.8164Z" fill="black"/>
<path d="M5.58224 23.5608C5.57197 23.7441 5.4921 23.9165 5.35896 24.043C5.22581 24.1694 5.04943 24.2402 4.86584 24.2409C4.49396 24.2259 4.17267 23.88 4.19386 23.517C4.20877 23.3399 4.288 23.1744 4.41659 23.0518C4.54517 22.9291 4.71422 22.8578 4.89181 22.8512C5.25548 22.8546 5.59181 23.1991 5.58224 23.5608Z" fill="black"/>
<path d="M21.1231 9.08359C21.1231 8.54834 21.1183 8.01309 21.1231 7.47783C21.1286 7.04102 21.3911 6.77646 21.8245 6.76963C22.2914 6.76279 22.7603 6.74365 23.2251 6.77646C23.5471 6.79902 23.6025 6.67803 23.5888 6.39365C23.5663 5.93906 23.5786 5.48242 23.584 5.02646C23.5895 4.57051 23.8506 4.30937 24.3093 4.30801C25.3798 4.30391 26.4508 4.30391 27.5222 4.30801C27.9563 4.30801 28.2236 4.58145 28.2297 5.01074C28.2366 5.48926 28.2441 5.96777 28.2256 6.44629C28.2168 6.69102 28.2687 6.78809 28.5387 6.77441C29.0172 6.7498 29.4958 6.76279 29.9743 6.76894C30.4261 6.77441 30.69 7.04238 30.6914 7.49629C30.6955 8.55586 30.6955 9.61543 30.6914 10.675C30.6914 11.1535 30.4289 11.4105 29.9524 11.414C29.4759 11.4174 28.9954 11.4249 28.5168 11.414C28.3022 11.4078 28.2168 11.4591 28.2256 11.6929C28.2441 12.1714 28.2338 12.6499 28.2304 13.1284C28.227 13.6247 27.97 13.8804 27.4682 13.8804C26.42 13.8831 25.3719 13.8831 24.3237 13.8804C23.8452 13.8804 23.5881 13.622 23.5834 13.1435C23.5793 12.6882 23.5656 12.2315 23.5888 11.7763C23.6025 11.5028 23.5403 11.3948 23.2416 11.4126C22.776 11.4399 22.3078 11.4235 21.8409 11.4187C21.3849 11.4133 21.1272 11.1542 21.1224 10.6941C21.119 10.1548 21.1231 9.61953 21.1231 9.08359ZM28.2885 10.0488C28.5503 10.0488 28.8128 10.0393 29.074 10.0522C29.2599 10.0618 29.3372 10.014 29.331 9.81025C29.3169 9.33174 29.3169 8.85322 29.331 8.37471C29.3365 8.16963 29.2626 8.12588 29.076 8.12998C28.5866 8.14092 28.0964 8.13682 27.607 8.12998C27.1285 8.12998 26.8708 7.87021 26.8667 7.39307C26.8626 6.90293 26.8584 6.41348 26.8667 5.92402C26.8708 5.74082 26.8318 5.65947 26.626 5.66562C26.1475 5.67975 25.669 5.67975 25.1905 5.66562C24.9909 5.66016 24.9396 5.7292 24.9444 5.91924C24.956 6.40869 24.9512 6.89883 24.9444 7.38828C24.9403 7.8668 24.6819 8.12588 24.2075 8.12998C23.7173 8.13408 23.2279 8.1375 22.7384 8.12998C22.5552 8.12998 22.4739 8.16484 22.48 8.37129C22.4944 8.8498 22.4937 9.32832 22.48 9.80684C22.4746 10.0058 22.5429 10.0577 22.733 10.0529C23.2224 10.0413 23.7126 10.0461 24.202 10.0529C24.6805 10.057 24.9403 10.3182 24.9444 10.7912C24.9485 11.2813 24.9526 11.7708 24.9444 12.2609C24.9403 12.4455 24.9827 12.5234 25.1871 12.5173C25.6656 12.5029 26.1441 12.5036 26.6226 12.5173C26.8236 12.5228 26.8714 12.4489 26.8673 12.2623C26.8564 11.7503 26.8571 11.2369 26.8673 10.7249C26.8749 10.3325 27.1408 10.068 27.5359 10.0543C27.7868 10.0427 28.0376 10.0488 28.2885 10.0488Z" fill="black"/>
</svg>
