<svg width="36" height="37" viewBox="0 0 36 37" fill="none" xmlns="http://www.w3.org/2000/svg">
<path d="M34.7893 9.45234C34.6453 11.1327 34.4965 12.8107 34.1844 14.4729C33.3182 19.1463 31.4297 23.349 28.4403 27.0546C25.6833 30.4686 22.3189 33.164 18.5166 35.3416C17.7907 35.7541 17.1931 35.7275 16.5023 35.2992C13.6702 33.5487 10.9772 31.6263 8.63873 29.237C7.47903 28.0695 6.42259 26.8038 5.48122 25.4541C3.20563 22.1417 1.84221 18.4567 1.05948 14.5503C0.490883 11.6637 0.354705 8.70857 0.65542 5.78188C0.70623 5.25684 0.919151 4.89633 1.49137 4.85761C4.78076 4.64106 7.93706 3.7918 11.0728 2.84939C13.2226 2.20863 15.3267 1.42372 17.3709 0.5H17.4919C17.8766 0.66332 18.2613 0.827849 18.646 0.98391C19.511 1.34684 20.4207 1.60453 21.2773 1.95173C23.5383 2.87721 25.8805 3.47242 28.2468 4.00835C29.9719 4.41121 31.7285 4.61324 33.4803 4.85519C34.2533 4.95924 34.6622 5.49638 34.6973 6.26216C34.7167 6.68196 34.7578 7.10054 34.7893 7.52033V9.45234ZM33.8396 8.46517C33.8396 7.78043 33.8214 7.0957 33.8456 6.40855C33.865 5.88955 33.5964 5.67421 33.1343 5.62824C30.6421 5.38768 28.1739 4.9426 25.7546 4.29749C23.075 3.57162 20.4437 2.73688 17.9105 1.60211C17.7713 1.53257 17.6178 1.49637 17.4622 1.49637C17.3067 1.49637 17.1532 1.53257 17.014 1.60211C13.8132 2.95353 10.5013 4.02536 7.11562 4.80559C5.38081 5.20119 3.6472 5.60163 1.86399 5.70204C1.62203 5.71655 1.51436 5.76858 1.49137 6.04077C1.36858 7.68078 1.36373 9.32749 1.47686 10.9682C1.64862 13.5249 2.16043 16.0473 2.99876 18.4688C3.78874 20.8025 4.82552 23.0103 6.24096 25.0222C7.55455 26.8752 9.07272 28.5744 10.7667 30.0875C12.7314 31.8598 14.9235 33.3043 17.1664 34.6846C17.2705 34.7623 17.3957 34.8063 17.5254 34.8108C17.6551 34.8154 17.7831 34.7802 17.8923 34.7101C19.4057 33.793 20.9059 32.8603 22.3261 31.8066C24.1057 30.4758 25.653 28.931 27.0927 27.2397C28.1367 26.0142 29.1348 24.7669 29.9574 23.389C32.6976 18.7894 33.8686 13.7785 33.8396 8.46396V8.46517Z" fill="black" stroke="black" stroke-miterlimit="10"/>
<path d="M21.0371 12.2881C22.4064 11.7561 23.7438 11.795 24.9658 12.6016C25.4774 12.9408 25.751 13.5159 25.9414 14.2266V14.2275L25.9424 14.2305C26.4853 16.2069 26.4407 18.2987 25.8135 20.25V20.251C25.5547 21.062 25.1527 21.5781 24.624 21.8857C24.1521 22.1603 23.5293 22.2978 22.7148 22.2725L22.3545 22.252C21.0696 22.1442 20.0838 21.2611 19.7744 19.9287C19.9814 19.9387 20.189 19.9342 20.3955 19.915L20.417 19.9131C20.676 19.8776 20.781 19.9066 20.8242 19.9307C20.8425 19.9409 20.8905 19.9723 20.9414 20.0947L20.9932 20.252C21.2411 21.2039 22.113 21.5109 22.832 21.5264C23.5998 21.5429 24.3535 21.2289 24.7861 20.4404L24.7871 20.4395C25.3087 19.4828 25.2837 18.4332 25.3057 17.542L25.3447 15.9561L24.4033 17.2334C24.0315 17.7379 23.6046 18.0243 23.1436 18.168C22.6744 18.3142 22.1386 18.3218 21.5449 18.2168H21.5439C20.7972 18.0852 20.2306 17.7106 19.8594 17.1768C19.4848 16.6381 19.2882 15.9057 19.3516 15.0342C19.4478 13.7083 19.8915 12.7331 21.0371 12.2881ZM22.7383 12.8418C22.081 12.8381 21.4949 13.0541 21.0684 13.4766C20.6961 13.8453 20.4766 14.3396 20.416 14.8994L20.4004 15.1436C20.383 15.8192 20.593 16.4284 21.0098 16.874C21.4278 17.3209 22.018 17.5646 22.6855 17.5713V17.5703C23.3649 17.5774 23.9772 17.3708 24.4258 16.9629C24.8777 16.5518 25.1261 15.9707 25.1299 15.3115C25.1341 14.6144 24.91 13.992 24.4746 13.54C24.0927 13.1437 23.5778 12.9098 22.9932 12.8545L22.7383 12.8418Z" fill="black" stroke="black"/>
<path d="M11.7443 12.3438C11.7274 13.9887 11.7365 15.6267 11.7365 17.2559C11.7365 18.0702 11.734 18.8872 11.7336 19.7051L11.7443 22.1592L11.7433 22.1611C11.3029 22.1282 10.8605 22.129 10.4201 22.1631H10.4182C10.4179 22.1502 10.417 22.1362 10.4172 22.1211V22.1191C10.433 19.6041 10.4043 17.1246 10.4406 14.623C10.4449 14.3152 10.4161 13.9244 10.131 13.6562C9.85334 13.3951 9.46865 13.3826 9.18768 13.3896H9.18182C9.05064 13.3943 8.93726 13.4008 8.84589 13.4053C8.83444 13.4058 8.82329 13.4057 8.81268 13.4062C8.81287 13.3862 8.81242 13.3648 8.81268 13.3418L8.81464 12.9922C8.81243 12.6923 8.81236 12.5106 8.82635 12.3848C8.82717 12.3774 8.82845 12.3705 8.82928 12.3643C8.83978 12.3627 8.85179 12.3599 8.86542 12.3584C8.99884 12.344 9.18844 12.3428 9.4953 12.3428C10.2178 12.3428 10.9879 12.3642 11.7433 12.334L11.7443 12.3438Z" fill="black" stroke="black"/>
<path d="M15.4729 20.9375C15.456 18.7837 15.4524 16.6306 15.4729 14.4785V14.4746C15.4729 14.2533 15.4571 13.916 15.2219 13.6699C14.9766 13.4132 14.6326 13.3947 14.3938 13.4004H14.3928C14.1469 13.4068 13.9941 13.4078 13.8889 13.3994C13.8774 13.2844 13.8762 13.1209 13.8762 12.8564C13.8762 12.6173 13.8779 12.4677 13.887 12.3623C13.9948 12.3529 14.1481 12.3516 14.3928 12.3516H16.5081V12.3506C16.6068 12.3515 16.6934 12.3511 16.7659 12.3506C16.7649 12.4301 16.7644 12.5269 16.7649 12.6387V12.6396C16.7746 14.1715 16.7688 15.6988 16.7688 17.2324C16.7688 18.8584 16.7543 20.5013 16.7786 22.1357V22.1367C16.7787 22.1459 16.7776 22.1548 16.7776 22.1631C16.7763 22.163 16.775 22.1632 16.7737 22.1631C16.4556 22.1383 16.0454 22.1862 15.8167 22.1963C15.5339 22.2087 15.4349 22.1773 15.4075 22.1621C15.4003 22.1455 15.3768 22.0755 15.3889 21.873C15.3966 21.7446 15.415 21.6088 15.4348 21.4453C15.4533 21.2926 15.4729 21.1137 15.4729 20.9414V20.9375Z" fill="black" stroke="black"/>
</svg>
