<svg width="34" height="27" viewBox="0 0 34 27" fill="none" xmlns="http://www.w3.org/2000/svg">
<path d="M23.0348 20.3548H12.5783C12.1061 20.3548 11.8776 20.1555 11.8946 19.7542C11.8921 19.6172 11.9441 19.4847 12.0392 19.3859C12.1342 19.2871 12.2646 19.2301 12.4017 19.2273C12.5075 19.2198 12.6142 19.2273 12.7209 19.2273C16.309 19.2273 19.8971 19.2273 23.4852 19.2273C23.706 19.238 23.9224 19.1633 24.0895 19.0187C25.5815 17.7732 27.6475 17.7666 29.1564 19.0045C29.3314 19.1577 29.5585 19.2378 29.7909 19.2283C30.7225 19.217 31.6548 19.217 32.5877 19.2283C32.8011 19.2283 32.871 19.1782 32.871 18.9554C32.8587 17.8837 32.8625 16.811 32.871 15.7393C32.8743 15.6643 32.8609 15.5895 32.8318 15.5203C32.8028 15.4511 32.7587 15.3892 32.7029 15.3389C32.1137 14.7611 31.5368 14.17 30.9448 13.5959C30.7499 13.4082 30.6087 13.1719 30.5359 12.9113C30.0172 11.1682 29.4953 9.42578 28.9703 7.68397C28.926 7.53761 28.8759 7.39219 28.8221 7.25056C28.6965 6.93707 28.4888 6.77844 28.1215 6.77844C26.0328 6.78977 23.9438 6.78977 21.8545 6.77844C21.5788 6.77844 21.5297 6.86247 21.5306 7.11648C21.5382 10.5554 21.5398 13.9947 21.5354 17.4342C21.5354 17.8894 21.339 18.1065 20.949 18.0952C20.8776 18.0993 20.8061 18.0888 20.739 18.0642C20.6718 18.0395 20.6105 18.0014 20.5587 17.9521C20.5069 17.9028 20.4658 17.8433 20.4379 17.7775C20.41 17.7116 20.396 17.6408 20.3966 17.5693C20.39 17.4635 20.3966 17.3568 20.3966 17.251V4.24597C20.3966 3.55195 20.2361 3.38954 19.5468 3.38954H1.98386C1.29078 3.38954 1.13404 3.55007 1.13404 4.23936C1.13404 9.10411 1.1312 13.9685 1.12554 18.8327C1.12554 19.1669 1.21996 19.2368 1.53534 19.2292C2.45503 19.2094 3.37662 19.2188 4.29631 19.2292C4.47102 19.2374 4.64214 19.1778 4.7741 19.063C7.13471 17.0886 10.5755 18.2557 11.2459 21.2641C11.3083 21.5426 11.466 21.4869 11.6303 21.4869C14.5329 21.4869 17.4358 21.4869 20.339 21.4869C20.5515 21.4869 20.7649 21.4822 20.9764 21.4869C21.3257 21.4983 21.5278 21.7013 21.5325 22.0355C21.5382 22.3877 21.3333 22.6096 20.966 22.6125C20.1048 22.62 19.2427 22.6125 18.3816 22.6125C16.1277 22.6125 13.8738 22.6125 11.6189 22.6077C11.3838 22.6077 11.2875 22.6502 11.228 22.9118C10.8069 24.7729 9.20071 26.0174 7.27823 26.0051C5.46717 25.9929 3.87895 24.6832 3.48332 22.8495C3.43988 22.6483 3.36151 22.6087 3.1821 22.6096C2.34456 22.6162 1.50701 22.6096 0.668525 22.6096C0.196403 22.6096 0 22.4142 0 21.9487C0.000629496 15.9452 0.000944244 9.93976 0.000944244 3.93248C0.000938526 3.49119 0.175657 3.06785 0.486899 2.75502C0.79814 2.44218 1.22058 2.26531 1.66187 2.26306C7.73084 2.26306 13.797 2.26306 19.8603 2.26306C20.3014 2.26479 20.724 2.44032 21.0365 2.7516C21.349 3.06288 21.5262 3.4848 21.5297 3.92587C21.5354 4.40838 21.5401 4.89184 21.5297 5.37435C21.524 5.57925 21.5665 5.66612 21.7979 5.65762C22.3757 5.64062 22.9539 5.64062 23.5324 5.65762C23.76 5.66423 23.8157 5.58491 23.8025 5.37435C23.7619 4.87956 23.8459 4.41594 24.1736 4.01652C24.3953 3.74542 24.6943 3.54826 25.0308 3.45127C25.3673 3.35428 25.7254 3.36206 26.0574 3.47358C26.3869 3.58984 26.6727 3.80453 26.8762 4.0886C27.0798 4.37266 27.1911 4.71239 27.1952 5.0618C27.2027 5.65384 27.2027 5.6529 27.7834 5.65384C28.0428 5.64106 28.3026 5.64484 28.5615 5.66517C29.1649 5.74732 29.5624 6.12407 29.8013 6.65663C30.179 7.49512 30.3678 8.39687 30.6407 9.26935C30.9693 10.308 31.2734 11.3599 31.5802 12.4071C31.632 12.5989 31.7348 12.7732 31.8777 12.9113C32.4924 13.5137 33.0939 14.1303 33.7104 14.7309C33.8057 14.8167 33.8809 14.9224 33.9309 15.0406C33.9808 15.1587 34.0042 15.2863 33.9994 15.4145C33.9909 17.5863 33.9947 19.7495 33.9937 21.9166C33.9937 22.4293 33.8049 22.6153 33.2912 22.6162C32.4763 22.6162 31.6624 22.6162 30.8484 22.6162C30.6435 22.6162 30.5538 22.6512 30.5019 22.8872C30.1157 24.6681 28.5313 25.9881 26.7891 26.0108C24.8374 26.0363 23.2416 24.8428 22.7742 22.9949C22.5495 22.1082 22.643 21.2424 23.0348 20.3548ZM7.37643 19.2217C6.81825 19.221 6.27234 19.3855 5.80758 19.6947C5.34281 20.0038 4.98 20.4436 4.76489 20.9587C4.54979 21.4738 4.49203 22.041 4.5989 22.5889C4.70577 23.1368 4.97249 23.6407 5.3654 24.0372C5.75832 24.4336 6.25985 24.7049 6.80673 24.8167C7.3536 24.9285 7.92134 24.8758 8.43833 24.6653C8.95531 24.4549 9.3984 24.096 9.7117 23.6341C10.025 23.1721 10.1945 22.6277 10.1988 22.0695C10.1978 21.3192 9.90087 20.5995 9.37243 20.0669C8.84399 19.5342 8.12673 19.2315 7.37643 19.2245V19.2217ZM23.7959 22.0365C23.7918 22.5966 23.9539 23.1454 24.2616 23.6135C24.5694 24.0815 25.009 24.4478 25.525 24.6661C26.0409 24.8843 26.6099 24.9447 27.1601 24.8396C27.7103 24.7344 28.217 24.4685 28.6162 24.0755C29.0153 23.6824 29.2889 23.1799 29.4025 22.6313C29.516 22.0828 29.4644 21.5129 29.2541 20.9937C29.0438 20.4745 28.6842 20.0293 28.221 19.7144C27.7577 19.3995 27.2114 19.229 26.6513 19.2245C25.9014 19.2244 25.1817 19.5193 24.6474 20.0454C24.1132 20.5716 23.8073 21.2867 23.7959 22.0365ZM3.74959 20.3548H1.99896C1.07833 20.3548 1.08305 20.3548 1.12932 21.266C1.13781 21.4284 1.17653 21.4916 1.34932 21.4888C1.97253 21.4813 2.59667 21.4888 3.21987 21.4888C3.32563 21.4888 3.44555 21.503 3.46254 21.3528C3.50031 21.012 3.65233 20.7051 3.74959 20.3548ZM30.2526 20.3548C30.3471 20.6834 30.4566 20.9695 30.5113 21.265C30.5463 21.4539 30.6247 21.4916 30.7946 21.4888C31.2063 21.4813 31.618 21.4888 32.0306 21.4888C32.9588 21.4888 32.9541 21.4888 32.8691 20.5446C32.855 20.3831 32.7917 20.3557 32.652 20.3557C31.8607 20.3567 31.0722 20.3548 30.2526 20.3548ZM25.505 5.66234C25.7165 5.58019 26.1055 5.85119 26.0715 5.3158C26.0356 4.79269 25.8619 4.51319 25.4851 4.52264C25.1084 4.53208 24.9583 4.80024 24.9186 5.30353C24.8818 5.86441 25.2897 5.5783 25.505 5.66234Z" fill="black"/>
<path d="M10.7653 7.35064H11.7568C12.2799 7.35064 12.4631 7.53005 12.465 8.04089C12.465 8.45352 12.4867 8.8671 12.4584 9.2769C12.4385 9.57151 12.5528 9.63005 12.8162 9.61777C13.2402 9.597 13.666 9.60928 14.09 9.61777C14.514 9.62627 14.7274 9.81323 14.7302 10.2325C14.7359 10.9507 14.7359 11.669 14.7302 12.3872C14.7302 12.8065 14.5206 13.0029 14.091 13.0076C13.6613 13.0123 13.2411 13.0303 12.8181 13.001C12.5084 12.9802 12.4404 13.0954 12.4584 13.3787C12.4829 13.7894 12.4669 14.203 12.464 14.6147C12.464 15.0661 12.2667 15.2691 11.8276 15.2757C11.1194 15.2795 10.4115 15.2795 9.70399 15.2757C9.26303 15.2757 9.06946 15.0727 9.06568 14.6204C9.06568 14.2087 9.0383 13.7942 9.07324 13.3844C9.10157 13.051 8.97126 12.9916 8.6776 13.0067C8.27724 13.0303 7.87499 13.0142 7.47463 13.0114C7.00251 13.0114 6.80233 12.8225 6.7995 12.3561C6.7995 11.6636 6.7995 10.969 6.7995 10.2721C6.7995 9.82079 6.99496 9.62533 7.4397 9.62155C7.86461 9.62155 8.28952 9.6055 8.71443 9.62155C8.97881 9.63383 9.09212 9.57434 9.07229 9.28068C9.04491 8.8586 9.06285 8.43086 9.06568 8.00878C9.06568 7.54233 9.26114 7.35725 9.73799 7.35442C10.0807 7.34876 10.4226 7.35064 10.7653 7.35064ZM12.6151 11.8736H12.7567C13.6245 11.8736 13.6188 11.8736 13.6066 11.0058C13.6066 10.817 13.5735 10.7301 13.3582 10.7376C12.8984 10.7528 12.4385 10.7452 11.9787 10.7376C11.5358 10.7329 11.3413 10.5327 11.3366 10.0852C11.3366 9.82645 11.3366 9.56678 11.3366 9.30806C11.3366 8.44597 11.3366 8.45258 10.4584 8.47146C10.2602 8.47146 10.1931 8.52717 10.1988 8.72924C10.212 9.20136 10.2082 9.67348 10.1988 10.1456C10.1931 10.5233 9.98632 10.7301 9.60768 10.7405C9.33574 10.7471 9.06474 10.7405 8.79374 10.7405C7.8986 10.7405 7.9071 10.7405 7.92882 11.6271C7.93448 11.8396 8.00908 11.8802 8.19792 11.8755C8.63417 11.8641 9.07135 11.8755 9.50759 11.8755C10.0194 11.8755 10.1988 12.0643 10.2007 12.5818C10.2007 12.8169 10.2007 13.0539 10.2007 13.288C10.2007 14.1775 10.2007 14.1719 11.0986 14.1379C11.2818 14.1322 11.3432 14.084 11.3385 13.898C11.3271 13.4155 11.329 12.9321 11.3385 12.4496C11.3441 12.0889 11.5509 11.883 11.9107 11.8736C12.142 11.8679 12.3781 11.8736 12.6142 11.8736H12.6151Z" fill="black"/>
<path d="M26.0167 13.5684C25.1197 13.5684 24.2227 13.5684 23.3275 13.5684C22.8611 13.5684 22.6666 13.3701 22.6666 12.9027C22.6666 11.4549 22.6666 10.007 22.6666 8.55919C22.6666 8.11162 22.8611 7.91522 23.3134 7.91333C24.657 7.91333 26.0016 7.91333 27.3462 7.91333C27.6899 7.91333 27.9062 8.05213 28.0072 8.3779C28.4482 9.84997 28.8948 11.3202 29.3292 12.7951C29.4651 13.2577 29.2073 13.5703 28.7126 13.5731C27.8089 13.5712 26.9119 13.5684 26.0167 13.5684ZM25.8968 12.4353C26.5096 12.4353 27.1243 12.4278 27.7343 12.4353C27.9732 12.44 28.0091 12.3702 27.9411 12.152C27.6437 11.2012 27.3538 10.2494 27.08 9.29193C27.0224 9.0908 26.9317 9.03887 26.7363 9.04076C25.8411 9.04894 24.946 9.04894 24.0508 9.04076C23.8535 9.04076 23.7893 9.09363 23.7912 9.29665C23.8006 10.2484 23.8034 11.2012 23.7912 12.153C23.7912 12.3975 23.879 12.4429 24.0971 12.4363C24.6957 12.4268 25.2963 12.4344 25.8968 12.4344V12.4353Z" fill="black"/>
<path d="M28.8948 1.36604C28.8913 1.44443 28.8682 1.52069 28.8278 1.58794C28.6276 1.93353 28.4416 2.28856 28.2273 2.6266C28.0431 2.91649 27.7429 2.9722 27.4596 2.80318C27.3342 2.73522 27.2409 2.62036 27.2 2.48374C27.1591 2.34712 27.174 2.19987 27.2415 2.07422C27.4303 1.70974 27.6428 1.3566 27.859 1.00628C28.0101 0.763611 28.249 0.705068 28.5077 0.794771C28.7485 0.873144 28.8996 1.04405 28.8948 1.36604Z" fill="black"/>
<path d="M22.7374 0.757039C22.9036 0.751373 23.0603 0.864683 23.1689 1.04975C23.3577 1.37457 23.5532 1.69656 23.7269 2.02988C23.9007 2.3632 23.7978 2.65402 23.5022 2.81455C23.2067 2.97507 22.9357 2.90236 22.7468 2.60115C22.541 2.27161 22.3436 1.94018 22.168 1.59081C21.9527 1.17251 22.219 0.752318 22.7374 0.757039Z" fill="black"/>
<path d="M26.0621 1.12051C26.0621 1.33202 26.0715 1.54353 26.0621 1.75315C26.0432 2.08364 25.8137 2.28004 25.4766 2.2706C25.1594 2.2621 24.945 2.06664 24.9365 1.74654C24.9252 1.33674 24.9233 0.92505 24.9365 0.519025C24.9479 0.190428 25.1858 -0.00597453 25.522 0.000635172C25.5923 -0.00286253 25.6626 0.00811277 25.7285 0.0328817C25.7944 0.0576506 25.8546 0.0956861 25.9052 0.144634C25.9558 0.193581 25.9959 0.2524 26.0229 0.317448C26.0498 0.382496 26.0632 0.452389 26.0621 0.522802C26.0687 0.721093 26.0621 0.921273 26.0621 1.12051Z" fill="black"/>
<path d="M23.7836 15.8308C23.607 15.8308 23.4305 15.8308 23.2548 15.8308C22.8601 15.8223 22.6505 15.6184 22.6552 15.2539C22.66 14.8894 22.8611 14.7081 23.2397 14.7034C23.6184 14.6987 23.9951 14.6949 24.3681 14.7034C24.4416 14.7007 24.5149 14.7131 24.5835 14.7399C24.652 14.7667 24.7143 14.8073 24.7665 14.8592C24.8186 14.9111 24.8596 14.9731 24.8867 15.0415C24.9139 15.1099 24.9266 15.1832 24.9242 15.2567C24.9276 15.33 24.916 15.4031 24.8903 15.4717C24.8645 15.5403 24.8251 15.603 24.7744 15.656C24.7238 15.7089 24.6629 15.7511 24.5955 15.7798C24.5281 15.8086 24.4555 15.8234 24.3823 15.8233C24.183 15.8346 23.9828 15.8233 23.7836 15.8233V15.8308Z" fill="black"/>
<path d="M5.66641 22.0355C5.66884 21.6996 5.77072 21.372 5.9592 21.094C6.14768 20.816 6.4143 20.6001 6.7254 20.4735C7.03651 20.3469 7.37814 20.3153 7.70718 20.3827C8.03622 20.4502 8.3379 20.6136 8.57414 20.8523C8.81039 21.0911 8.9706 21.3944 9.03455 21.7242C9.0985 22.0539 9.06333 22.3952 8.93346 22.7049C8.8036 23.0147 8.58487 23.279 8.3049 23.4646C8.02492 23.6501 7.69625 23.7485 7.36038 23.7474C7.13594 23.7491 6.91344 23.7058 6.70598 23.6202C6.49853 23.5345 6.31032 23.4082 6.15245 23.2486C5.99458 23.0891 5.87024 22.8996 5.78677 22.6912C5.70329 22.4829 5.66237 22.2599 5.66641 22.0355ZM6.7995 22.0431C6.78817 22.1228 6.79397 22.204 6.81651 22.2813C6.83905 22.3587 6.87781 22.4303 6.93021 22.4914C6.98262 22.5526 7.04746 22.6019 7.12041 22.636C7.19336 22.6701 7.27274 22.6883 7.35327 22.6893C7.4338 22.6903 7.51362 22.6741 7.58741 22.6419C7.66119 22.6096 7.72725 22.562 7.78118 22.5022C7.83511 22.4423 7.87567 22.3717 7.90015 22.295C7.92463 22.2183 7.93247 22.1372 7.92315 22.0572C7.90722 21.9205 7.84204 21.7942 7.73979 21.702C7.63754 21.6098 7.50522 21.558 7.36755 21.5563C7.22989 21.5545 7.0963 21.603 6.99176 21.6926C6.88722 21.7822 6.81888 21.9067 6.7995 22.0431Z" fill="black"/>
<path d="M24.929 21.9978C24.9403 21.0668 25.7165 20.3388 26.6862 20.352C27.0219 20.3635 27.3467 20.4743 27.6195 20.6703C27.8923 20.8663 28.1009 21.1388 28.219 21.4532C28.3371 21.7677 28.3593 22.1101 28.2829 22.4373C28.2065 22.7644 28.0348 23.0615 27.7897 23.2911C27.5445 23.5208 27.2368 23.6726 26.9053 23.7274C26.5739 23.7823 26.2337 23.7377 25.9276 23.5993C25.6215 23.4609 25.3633 23.235 25.1856 22.9499C25.0078 22.6649 24.9185 22.3336 24.929 21.9978ZM27.1904 22.0554C27.1759 21.9178 27.1114 21.7903 27.0093 21.6969C26.9072 21.6036 26.7744 21.5508 26.6361 21.5486C26.4977 21.5464 26.3634 21.5949 26.2583 21.685C26.1533 21.775 26.0848 21.9004 26.0659 22.0375C26.0804 22.1751 26.1449 22.3026 26.247 22.3959C26.3491 22.4893 26.4819 22.542 26.6202 22.5442C26.7586 22.5464 26.8929 22.4979 26.998 22.4079C27.103 22.3178 27.1715 22.1925 27.1904 22.0554Z" fill="black"/>
</svg>
