<svg width="30" height="35" viewBox="0 0 30 35" fill="none" xmlns="http://www.w3.org/2000/svg">
<g clip-path="url(#clip0_4_2941)">
<path d="M14.9918 34.9969C10.9198 34.9969 6.84826 34.9969 2.77703 34.9969C1.76873 34.9969 0.954414 34.6548 0.407734 33.7799C0.165721 33.4086 0.0416365 32.9722 0.0519248 32.5285C0.0664477 32.0738 -0.00409175 31.6139 0.0923813 31.1655C0.360016 29.914 1.3289 29.1674 2.68574 29.1455C3.36313 29.134 3.36002 29.134 3.36313 28.4666C3.38387 24.85 3.26665 21.2313 3.41396 17.621C3.54363 14.4434 4.89529 11.7915 7.23035 9.65884C9.09757 7.95275 11.3185 6.99229 13.8237 6.72219C19.3859 6.12255 24.6577 9.73184 26.1847 15.1609C26.4896 16.2904 26.6369 17.457 26.6225 18.6273C26.6225 21.9324 26.6225 25.2369 26.6225 28.5406C26.6225 29.2445 26.5395 29.1507 27.2127 29.1444C28.1889 29.1361 29.0384 29.4395 29.5229 30.3114C30.1629 31.4585 30.1619 32.6911 29.5229 33.8404C29.0374 34.7111 28.1847 35.0052 27.2096 35.0031C23.1356 34.9941 19.063 34.992 14.9918 34.9969ZM14.97 29.1444C18.1463 29.1444 21.3227 29.1444 24.5001 29.1517C24.8351 29.1517 24.9596 29.0912 24.9575 28.7137C24.9409 25.3057 24.9482 21.8966 24.9472 18.4938C24.9453 17.9217 24.8992 17.3506 24.8092 16.7857C23.8974 10.9395 18.1256 7.16123 12.4337 8.68587C8.05089 9.86011 5.04777 13.7958 5.03221 18.4167C5.0208 21.8508 5.03221 25.2859 5.01977 28.72C5.01977 29.0985 5.14425 29.158 5.47827 29.1569C8.64217 29.1403 11.8061 29.1444 14.97 29.1444ZM14.97 33.3158H27.0664C27.1826 33.3158 27.2998 33.3221 27.416 33.3158C27.9108 33.2793 28.2034 32.9957 28.2459 32.5055C28.2604 32.3376 28.2552 32.1676 28.2552 31.9987C28.2552 31.0601 28.0104 30.8203 27.082 30.8203H3.08512C1.88906 30.8203 1.71686 30.9944 1.72205 32.1989C1.72205 33.052 1.99176 33.3189 2.83823 33.3189L14.97 33.3158Z" fill="black"/>
<path d="M14.1411 2.48719C14.1411 1.98036 14.1411 1.47354 14.1411 0.965676C14.1494 0.390024 14.499 0 14.9907 0C15.4824 0 15.8309 0.394196 15.834 0.97089C15.8403 1.99844 15.8403 3.02564 15.834 4.0525C15.834 4.63337 15.4876 5.01088 14.9855 5.00879C14.4834 5.0067 14.1484 4.63024 14.1421 4.04729C14.1369 3.52795 14.1411 3.00757 14.1411 2.48719Z" fill="black"/>
<path d="M0.854843 8.31457C1.03649 8.322 1.2122 8.38173 1.36107 8.48664C2.15567 9.01953 2.9565 9.54304 3.74696 10.0811C4.20235 10.394 4.3258 10.8956 4.06542 11.294C3.78845 11.7111 3.29675 11.7925 2.81127 11.4723C2.00284 10.9384 1.19717 10.3992 0.394262 9.85485C0.231374 9.75775 0.107757 9.60602 0.0451463 9.42634C-0.0174644 9.24667 -0.0150595 9.05056 0.0519383 8.87249C0.109973 8.70615 0.21893 8.56255 0.363176 8.46232C0.507421 8.36209 0.679542 8.31036 0.854843 8.31457Z" fill="black"/>
<path d="M24.0903 3.4028C24.0932 3.58187 24.0346 3.75646 23.9243 3.89711C23.4056 4.68759 22.8807 5.48015 22.3507 6.26437C22.0395 6.72322 21.5405 6.84419 21.1421 6.57723C20.7438 6.31026 20.6515 5.80865 20.9544 5.34458C21.4786 4.54089 22.009 3.74138 22.5457 2.94604C22.6395 2.78538 22.7842 2.66094 22.9566 2.59255C23.129 2.52415 23.3192 2.51574 23.4969 2.56865C23.6746 2.62156 23.8296 2.73275 23.9371 2.88449C24.0447 3.03623 24.0986 3.2198 24.0903 3.40593V3.4028Z" fill="black"/>
<path d="M29.97 9.13642C29.9441 9.43676 29.8403 9.6787 29.5945 9.84347C28.7563 10.4045 27.9243 10.9739 27.0789 11.5245C26.9893 11.5934 26.8867 11.6432 26.7773 11.6709C26.668 11.6986 26.5541 11.7036 26.4428 11.6855C26.3314 11.6675 26.2249 11.6268 26.1297 11.566C26.0345 11.5052 25.9526 11.4255 25.8891 11.3318C25.8255 11.2382 25.7817 11.1324 25.7601 11.0211C25.7386 10.9098 25.7399 10.7953 25.7638 10.6845C25.7878 10.5737 25.834 10.469 25.8996 10.3767C25.9652 10.2845 26.0488 10.2067 26.1453 10.148C26.9856 9.56607 27.831 8.99042 28.693 8.44397C28.8177 8.3638 28.9614 8.31861 29.1093 8.31308C29.2572 8.30755 29.4039 8.34188 29.5342 8.41251C29.6644 8.48314 29.7735 8.58751 29.8501 8.71479C29.9268 8.84208 29.9682 8.98765 29.97 9.13642Z" fill="black"/>
<path d="M9.17426 5.85345C9.17635 6.02358 9.12478 6.19001 9.02693 6.32884C8.92909 6.46768 8.79001 6.57177 8.62965 6.6262C8.26865 6.77011 7.93255 6.68147 7.72508 6.38635C7.12135 5.52913 6.54009 4.65626 5.98131 3.76776C5.74583 3.39651 5.90351 2.91471 6.27073 2.67903C6.61513 2.45794 7.11409 2.51009 7.35372 2.85527C7.945 3.70519 8.50517 4.57701 9.07778 5.44153C9.14643 5.56753 9.17978 5.7099 9.17426 5.85345Z" fill="black"/>
<path d="M14.9668 25.825C14.4357 25.825 13.9046 25.8302 13.3735 25.825C12.8424 25.8198 12.5052 25.4986 12.5011 24.9511C12.4949 24.2493 12.4866 23.5475 12.5011 22.8456C12.5083 22.5641 12.4119 22.4963 12.1484 22.5025C11.4876 22.5192 10.8268 22.515 10.166 22.5025C9.45958 22.4931 9.15875 22.1782 9.15771 21.4597C9.15771 20.4718 9.15771 19.4842 9.15771 18.4969C9.15771 17.8066 9.49174 17.4802 10.1888 17.477C10.8496 17.477 11.5114 17.4666 12.1712 17.4823C12.4202 17.4875 12.5063 17.4218 12.5 17.16C12.4824 16.4582 12.4907 15.7564 12.5 15.0545C12.5 14.5174 12.7853 14.1785 13.3175 14.1671C14.4316 14.1427 15.5457 14.1427 16.6598 14.1671C17.1909 14.1785 17.472 14.5185 17.4751 15.0576C17.4803 15.7459 17.4938 16.4363 17.4689 17.1235C17.4575 17.4291 17.5612 17.4916 17.8413 17.4833C18.5021 17.4635 19.1629 17.4729 19.8237 17.4833C20.4689 17.4833 20.8092 17.8233 20.8123 18.4667C20.8185 19.4929 20.8185 20.5197 20.8123 21.5473C20.8123 22.1542 20.4886 22.4858 19.8787 22.5025C19.1795 22.5182 18.4793 22.515 17.7801 22.5025C17.5457 22.5025 17.4689 22.5661 17.4689 22.8102C17.4845 23.512 17.4783 24.2138 17.4689 24.9157C17.4689 25.509 17.1494 25.8209 16.5519 25.825C16.0291 25.8282 15.498 25.8261 14.9668 25.825ZM12.2407 20.8308H13.1359C13.8756 20.8308 14.1619 21.1166 14.1733 21.8685C14.1795 22.5317 14.1816 23.195 14.1733 23.8582C14.1733 24.0751 14.2386 24.1617 14.4617 24.1523C14.7982 24.1346 15.1355 24.1346 15.472 24.1523C15.7531 24.17 15.8237 24.0605 15.8185 23.7946C15.8029 23.1053 15.8009 22.416 15.8185 21.7266C15.8351 21.1228 16.1525 20.8329 16.7521 20.8288C17.1141 20.8288 17.4783 20.835 17.8403 20.8288C18.2552 20.8194 18.8092 21.005 19.0395 20.7631C19.305 20.4846 19.0913 19.9288 19.1276 19.4887C19.1463 19.2541 19.0747 19.1758 18.8278 19.1758C18.1805 19.1925 17.5322 19.1821 16.8839 19.1811C16.1204 19.1811 15.8185 18.8849 15.8123 18.1247C15.8061 17.4614 15.8019 16.7971 15.8123 16.1349C15.8175 15.8961 15.7438 15.8137 15.5011 15.8283C15.1646 15.8492 14.8272 15.8492 14.4907 15.8283C14.2272 15.8095 14.1608 15.9096 14.165 16.1578C14.1774 16.8472 14.1795 17.5365 14.165 18.2258C14.1515 18.8619 13.8227 19.1758 13.1909 19.1811C12.5166 19.1811 11.8424 19.1894 11.1691 19.1811C10.9482 19.1811 10.8351 19.2165 10.8507 19.4762C10.8724 19.838 10.8641 20.2062 10.8507 20.568C10.8434 20.7662 10.9005 20.8465 11.111 20.8381C11.4886 20.8194 11.8652 20.8308 12.2407 20.8308Z" fill="black"/>
</g>
<defs>
<clipPath id="clip0_4_2941">
<rect width="30" height="35" fill="white"/>
</clipPath>
</defs>
</svg>
